<svg xmlns="http://www.w3.org/2000/svg" viewBox="0 0 500 800"><defs><style>.b{fill:#0288d1}.d{fill:#fff}.e{fill:#f8ba00}.f{fill:#67b8e3}</style></defs><ellipse cx="250" cy="397.68" rx="73.1" ry="72.45" fill="#01334d"/><path class="b" d="M426.75 222a260.81 260.81 0 00-177-69.24h-.2A257.42 257.42 0 0073.25 222 230.8 230.8 0 000 394.49h83.11A163.57 163.57 0 01132 280.76c65.08-64.51 171-64.51 236.06 0a164.09 164.09 0 0148.76 113.73H500C501.06 328.73 474.48 266 426.75 222z"/><path d="M365 283.68c-63.53-63-166.53-63-230.06 0a160.21 160.21 0 000 228c63.53 63 166.53 63 230.06 0a160.21 160.21 0 000-228zm-60.08 168.44a78.17 78.17 0 01-109.84 0 76.49 76.49 0 010-108.87 78.17 78.17 0 01109.84 0 76.49 76.49 0 010 108.87z" fill="#02669d"/><path class="b" d="M500 399.39h-83.17A164.16 164.16 0 01368 514.72a168.17 168.17 0 01-236.06 0 163.54 163.54 0 01-48.85-116.11v.78H.05a231 231 0 0047.24 144.88 234 234 0 0024.9 27.22c99.75 93 255.09 92.68 355.61 0a227.48 227.48 0 0025.14-27.27c.61-.8 1.22-1.59 1.82-2.4l.37-.48A230.27 230.27 0 00500 399.39z"/><path class="d" d="M151.52 600.91v-24h5.88v24zM173.26 600.91v-9.21a7.37 7.37 0 00-.12-1.35 3.84 3.84 0 00-.4-1.14 2 2 0 00-.77-.78 2.45 2.45 0 00-1.24-.28 2.91 2.91 0 00-1.32.28 2.6 2.6 0 00-.94.8 3.52 3.52 0 00-.56 1.17 4.82 4.82 0 00-.19 1.37v9.14h-5.64v-16.86h5.43v2.33h.07a5.86 5.86 0 01.81-1.06 4.56 4.56 0 011.16-.9 7.26 7.26 0 011.45-.61 5.67 5.67 0 011.67-.24 6.45 6.45 0 012.91.61 5.5 5.5 0 011.93 1.58 6.18 6.18 0 011.06 2.22 9.74 9.74 0 01.32 2.5v10.43zM189.22 588.18v6.46a2.9 2.9 0 00.46 1.79 2 2 0 001.65.59 5.48 5.48 0 00.88-.07 3 3 0 00.77-.2l.06 4.06a8.31 8.31 0 01-1.47.36 10.57 10.57 0 01-1.77.15 8.48 8.48 0 01-2.87-.42 4.47 4.47 0 01-1.87-1.23 4.89 4.89 0 01-1-1.9 9.31 9.31 0 01-.3-2.46v-7.13H181v-4.13h2.7v-4.44h5.51v4.44h4v4.13zM212.73 592.68v.68a4.31 4.31 0 010 .64h-12.37a2.81 2.81 0 00.42 1.29 3.54 3.54 0 00.93 1 4.56 4.56 0 002.71.9 4.75 4.75 0 002.26-.49 4.44 4.44 0 001.5-1.27l3.9 2.44a8 8 0 01-3.16 2.66 10.55 10.55 0 01-4.56.93 10.88 10.88 0 01-3.63-.6 8.86 8.86 0 01-3-1.72 7.94 7.94 0 01-2-2.8 10.07 10.07 0 010-7.53 8.5 8.5 0 011.95-2.85 8.63 8.63 0 012.9-1.81 10 10 0 013.62-.64 9.22 9.22 0 013.46.62 7.69 7.69 0 012.7 1.81 8.51 8.51 0 011.76 2.88 11 11 0 01.61 3.86zm-5.16-2.13a3.31 3.31 0 00-.84-2.27 3.19 3.19 0 00-2.51-.95 4.31 4.31 0 00-1.51.26 4 4 0 00-1.19.69 3.39 3.39 0 00-.82 1 2.92 2.92 0 00-.34 1.24zM234.26 599.32a11.7 11.7 0 01-.72 4.3 7.78 7.78 0 01-5.18 4.83 13.34 13.34 0 01-4.11.59 16.83 16.83 0 01-4.63-.67 12.61 12.61 0 01-4.12-2l2.8-4a8.3 8.3 0 002.72 1.61 8.7 8.7 0 002.92.52 4.74 4.74 0 003.64-1.28 4.9 4.9 0 001.18-3.42v-1h-.11a5.42 5.42 0 01-2.11 1.62 7.22 7.22 0 01-3 .61 8.21 8.21 0 01-3.45-.69 7.49 7.49 0 01-2.54-1.88 8 8 0 01-1.59-2.76 10 10 0 01-.55-3.34 10.1 10.1 0 01.55-3.35 8.37 8.37 0 011.59-2.81 7.8 7.8 0 012.54-2 8 8 0 016.5-.08 5.23 5.23 0 012.35 2h.06v-2.16h5.3zm-5.33-6.94a4.74 4.74 0 00-.29-1.63 4.36 4.36 0 00-.84-1.37 4 4 0 00-3-1.27 3.83 3.83 0 00-2.94 1.25 4.06 4.06 0 00-.78 1.36 5 5 0 00-.28 1.66 4.88 4.88 0 00.28 1.62 4.26 4.26 0 00.78 1.38 3.89 3.89 0 001.25.94 3.79 3.79 0 001.69.36 4 4 0 001.73-.36 4 4 0 001.3-.93 4.18 4.18 0 00.82-1.35 4.79 4.79 0 00.28-1.66zM249.74 588.62a4.93 4.93 0 00-.73-.14h-.7a4.14 4.14 0 00-1.9.4 4 4 0 00-1.23 1 3.75 3.75 0 00-.67 1.24 4.47 4.47 0 00-.2 1.19v8.64h-5.61v-16.88h5.4v2.43h.07a5.53 5.53 0 011.85-2.11 4.8 4.8 0 012.76-.82 4.92 4.92 0 01.67 0 2.17 2.17 0 01.53.1zM251.48 586.35a9.77 9.77 0 013.51-2.13 11.92 11.92 0 014.08-.71 11 11 0 013.64.52 5.36 5.36 0 012.41 1.63 6.91 6.91 0 011.35 2.77 16.55 16.55 0 01.43 4v8.5h-5.13v-1.79h-.1a4.16 4.16 0 01-2 1.62 6.88 6.88 0 01-2.85.58 8.87 8.87 0 01-2.12-.27 6.1 6.1 0 01-2-.88 4.88 4.88 0 01-1.49-1.63 5 5 0 01-.58-2.5 4.26 4.26 0 011-2.95 6.6 6.6 0 012.6-1.73 14.36 14.36 0 013.54-.81 35.29 35.29 0 013.79-.2v-.27a2.06 2.06 0 00-.89-1.85 3.89 3.89 0 00-2.19-.59 5.46 5.46 0 00-2.3.51 7.19 7.19 0 00-1.9 1.21zm10.29 7.21h-.72q-.92 0-1.86.09a7.74 7.74 0 00-1.67.32 3.11 3.11 0 00-1.22.7 1.57 1.57 0 00-.48 1.2 1.43 1.43 0 00.23.81 1.53 1.53 0 00.56.54 2.19 2.19 0 00.79.29 4.21 4.21 0 00.85.08 3.18 3.18 0 003.52-3.45zM276.81 588.18v6.46a2.9 2.9 0 00.46 1.79 2 2 0 001.66.59 5.45 5.45 0 00.87-.07 2.86 2.86 0 00.77-.2l.07 4.06a8.78 8.78 0 01-1.47.36 10.78 10.78 0 01-1.78.15 8.48 8.48 0 01-2.87-.42 4.37 4.37 0 01-1.86-1.23 4.64 4.64 0 01-1-1.9 8.9 8.9 0 01-.31-2.46v-7.13h-2.73v-4.13h2.7v-4.44h5.5v4.44h4v4.13zM289.52 578.66a2.7 2.7 0 01-.26 1.2 2.93 2.93 0 01-.68 1 3.21 3.21 0 01-1 .64 3.35 3.35 0 01-1.25.24 3.14 3.14 0 01-2.29-.9 2.87 2.87 0 01-.92-2.15 3 3 0 01.24-1.17 2.59 2.59 0 01.68-1 3.88 3.88 0 011-.66 3.13 3.13 0 011.27-.26 3.35 3.35 0 011.25.24 3.21 3.21 0 011 .64 3 3 0 01.68 1 2.7 2.7 0 01.28 1.18zm-6 22.25v-16.86h5.6v16.86zM311.6 592.41a9.1 9.1 0 01-.75 3.75 8.52 8.52 0 01-2.05 2.84 9.45 9.45 0 01-3 1.81 10.57 10.57 0 01-7.3 0 9.23 9.23 0 01-3-1.81 8.61 8.61 0 01-2-2.84 9.1 9.1 0 01-.75-3.75 8.92 8.92 0 01.75-3.72 8.29 8.29 0 012-2.81 9 9 0 013-1.77 11.4 11.4 0 017.3 0 9.17 9.17 0 013 1.77 8.2 8.2 0 012.05 2.81 8.92 8.92 0 01.75 3.72zm-5.4 0a4.83 4.83 0 00-.27-1.59 4.31 4.31 0 00-.79-1.37 3.93 3.93 0 00-1.26-1 4.06 4.06 0 00-1.75-.37 4 4 0 00-1.74.37 3.79 3.79 0 00-1.25 1 4 4 0 00-.75 1.37 5 5 0 000 3.18 4.4 4.4 0 00.77 1.41 3.75 3.75 0 001.26 1 3.89 3.89 0 001.75.37 3.84 3.84 0 001.74-.37 3.89 3.89 0 001.27-1 4.38 4.38 0 00.76-1.41 5 5 0 00.26-1.59zM326.33 600.91v-9.21a7.37 7.37 0 00-.12-1.35 3.83 3.83 0 00-.39-1.14 2.06 2.06 0 00-.77-.78 2.49 2.49 0 00-1.25-.28 2.91 2.91 0 00-1.32.28 2.68 2.68 0 00-.94.8 3.52 3.52 0 00-.56 1.17 4.82 4.82 0 00-.19 1.37v9.14h-5.64v-16.86h5.44v2.33h.07a5.37 5.37 0 01.8-1.06 4.93 4.93 0 011.16-.9 7.26 7.26 0 011.45-.61 5.78 5.78 0 011.68-.24 6.38 6.38 0 012.9.61 5.5 5.5 0 011.93 1.58 6 6 0 011.06 2.22 9.76 9.76 0 01.33 2.5v10.43zM346.22 589a6.42 6.42 0 00-1.61-1.09 4.48 4.48 0 00-1.94-.44 3.38 3.38 0 00-1.46.31 1.06 1.06 0 00-.66 1.05 1 1 0 00.73 1 15.32 15.32 0 002.38.68 13.61 13.61 0 011.93.58 6.58 6.58 0 011.76 1 4.66 4.66 0 011.26 1.49 4.34 4.34 0 01.48 2.1 5.06 5.06 0 01-2.34 4.47 7.39 7.39 0 01-2.34 1 11 11 0 01-2.6.31 12.91 12.91 0 01-4.08-.66 8.56 8.56 0 01-3.34-1.95l3.15-3.29a6.17 6.17 0 001.85 1.36 5.14 5.14 0 002.32.54 3.18 3.18 0 001.35-.32 1.16 1.16 0 00.66-1.14 1.21 1.21 0 00-.81-1.15 14.84 14.84 0 00-2.57-.78 12.44 12.44 0 01-1.78-.54 5.67 5.67 0 01-1.59-.91 4.74 4.74 0 01-1.14-1.43 4.26 4.26 0 01-.44-2 4.84 4.84 0 01.65-2.59 5.45 5.45 0 011.67-1.74 7.14 7.14 0 012.27-1 9.65 9.65 0 012.48-.32 11.89 11.89 0 013.74.59 8 8 0 013.09 1.78zM225.4 211.39l-1.88-4.71h-9.36l-1.78 4.71H206l10.15-24h5.68l10.05 24zm-6.49-17.58l-3.08 8.19h6.09zM252.54 202.89a10.75 10.75 0 01-.55 3.39 8.6 8.6 0 01-1.59 2.86 7.89 7.89 0 01-2.54 2 7.6 7.6 0 01-3.42.74 7.37 7.37 0 01-3-.62 5.32 5.32 0 01-2.18-1.71h-.07v10h-5.59v-25h5.34v2.07h.1a6.87 6.87 0 012.17-1.78 6.63 6.63 0 013.26-.76 7.6 7.6 0 015.9 2.64 8.74 8.74 0 011.6 2.83 10 10 0 01.57 3.34zm-5.44 0a5.08 5.08 0 00-.25-1.59 4.19 4.19 0 00-.75-1.38 3.9 3.9 0 00-1.25-1 3.86 3.86 0 00-1.75-.37 3.76 3.76 0 00-1.7.37 4.05 4.05 0 00-1.29 1 4.72 4.72 0 00-.82 1.39 4.57 4.57 0 00.82 4.57 4.08 4.08 0 001.29 1 3.89 3.89 0 001.7.37 4 4 0 001.75-.37 3.71 3.71 0 001.25-1 4.19 4.19 0 00.75-1.4 5.25 5.25 0 00.25-1.59zM275 202.89a10.74 10.74 0 01-.54 3.39 9 9 0 01-1.59 2.86 8 8 0 01-2.55 2 7.54 7.54 0 01-3.42.74 7.28 7.28 0 01-3-.62 5.28 5.28 0 01-2.19-1.71h-.07v10h-5.6v-25h5.33v2.07h.1a7 7 0 012.17-1.78 6.67 6.67 0 013.27-.76 7.68 7.68 0 013.35.71 7.49 7.49 0 012.54 1.93 8.76 8.76 0 011.61 2.83 10.23 10.23 0 01.59 3.34zm-5.43 0a5.09 5.09 0 00-.26-1.59 4.19 4.19 0 00-.75-1.38 3.9 3.9 0 00-1.25-1 3.84 3.84 0 00-1.74-.37 3.77 3.77 0 00-1.71.37 4 4 0 00-1.28 1 4.52 4.52 0 00-.82 1.39 4.57 4.57 0 00.82 4.57 4 4 0 001.28 1 3.91 3.91 0 001.71.37 4 4 0 001.74-.37 3.71 3.71 0 001.25-1 4.19 4.19 0 00.75-1.4 5.26 5.26 0 00.25-1.59zM288.53 199.5a6.14 6.14 0 00-1.61-1.08A4.41 4.41 0 00285 198a3.48 3.48 0 00-1.45.3 1.09 1.09 0 00-.67 1.05 1 1 0 00.74 1 15.72 15.72 0 002.38.65 13.23 13.23 0 011.93.58 7 7 0 011.76 1 4.78 4.78 0 011.27 1.49 4.34 4.34 0 01.48 2.1 5.27 5.27 0 01-.65 2.7 5.4 5.4 0 01-1.69 1.77 7.37 7.37 0 01-2.35 1 11.44 11.44 0 01-2.59.3 13 13 0 01-4.09-.66 8.59 8.59 0 01-3.33-2l3.15-3.28a6.22 6.22 0 001.84 1.35 5.19 5.19 0 002.33.55 3 3 0 001.34-.33 1.14 1.14 0 00.67-1.13 1.21 1.21 0 00-.82-1.15 14.67 14.67 0 00-2.56-.78 15.08 15.08 0 01-1.78-.54 5.7 5.7 0 01-1.59-.92 4.41 4.41 0 01-1.14-1.42 4.28 4.28 0 01-.45-2 5 5 0 01.65-2.6 5.37 5.37 0 011.62-1.73 7.62 7.62 0 012.27-1 10.11 10.11 0 012.48-.32 12.23 12.23 0 013.74.59 8.13 8.13 0 013.09 1.78zM187.44 303.77l.14-17h-.1l-6.29 17h-4.1l-6.12-17h-.1l.13 17h-5.5v-24h8.32l5.5 15.37h.14l5.27-15.37h8.45v24zM197.59 289.2a9.73 9.73 0 013.5-2.13 12 12 0 014.09-.71 11 11 0 013.64.52 5.42 5.42 0 012.41 1.63 7 7 0 011.35 2.78 16.47 16.47 0 01.42 4v8.5h-5.12V302h-.1a4.29 4.29 0 01-2 1.63 7.11 7.11 0 01-2.85.57 8.8 8.8 0 01-2.12-.27 6.1 6.1 0 01-2-.88 4.85 4.85 0 01-1.49-1.62 5 5 0 01-.58-2.51 4.26 4.26 0 011-2.95 6.58 6.58 0 012.6-1.72 13.94 13.94 0 013.53-.82c1.3-.13 2.57-.2 3.8-.2v-.27a2.08 2.08 0 00-.89-1.85 3.89 3.89 0 00-2.19-.59 5.51 5.51 0 00-2.31.51 7.15 7.15 0 00-1.89 1.22zm10.29 7.22h-.72c-.61 0-1.24 0-1.86.08a8.5 8.5 0 00-1.68.32 3.07 3.07 0 00-1.21.7 1.57 1.57 0 00-.48 1.2 1.48 1.48 0 00.22.81 1.63 1.63 0 00.57.54 2.21 2.21 0 00.78.29 4.41 4.41 0 00.86.09 3.19 3.19 0 003.52-3.46zM228.21 291.47a3.87 3.87 0 00-.73-.13 5.58 5.58 0 00-.7 0 4 4 0 00-1.9.41 3.81 3.81 0 00-1.23 1 3.7 3.7 0 00-.67 1.25 4.34 4.34 0 00-.2 1.18v8.65h-5.61v-16.91h5.4v2.44h.07a5.57 5.57 0 011.85-2.12 4.83 4.83 0 012.77-.81h.66a2.64 2.64 0 01.53.1zM249.64 295.27a10.63 10.63 0 01-.54 3.38 8.91 8.91 0 01-1.59 2.87 8 8 0 01-2.55 2 7.68 7.68 0 01-3.42.74 7.28 7.28 0 01-3-.62 5.29 5.29 0 01-2.19-1.72h-.07v10h-5.6v-25H236V289h.1a6.85 6.85 0 012.17-1.78 6.64 6.64 0 013.27-.76 7.68 7.68 0 013.35.71 7.36 7.36 0 012.54 1.93 8.66 8.66 0 011.61 2.83 10.23 10.23 0 01.6 3.34zm-5.43 0a5.11 5.11 0 00-.26-1.6 4.14 4.14 0 00-.75-1.37 3.9 3.9 0 00-1.25-1 3.84 3.84 0 00-1.74-.38 3.77 3.77 0 00-1.71.38 4 4 0 00-1.28 1 4.52 4.52 0 00-.82 1.39 4.5 4.5 0 000 3.18 4.52 4.52 0 00.82 1.39 4 4 0 001.28 1 3.77 3.77 0 001.71.38 3.84 3.84 0 001.74-.38 3.69 3.69 0 001.25-1 4.29 4.29 0 00.75-1.4 5.31 5.31 0 00.26-1.59zM279.34 303.34a13.06 13.06 0 01-5.43 1.07 14.28 14.28 0 01-5.18-.91 12.19 12.19 0 01-4.12-2.6 11.89 11.89 0 01-2.73-4 14 14 0 010-10.36 11.58 11.58 0 012.79-4 12.25 12.25 0 014.17-2.53 15 15 0 015.16-.88 14.64 14.64 0 015 .9 9.66 9.66 0 014 2.63l-4 3.92a5 5 0 00-2.15-1.66 7.22 7.22 0 00-2.73-.54 7 7 0 00-2.82.56 6.81 6.81 0 00-2.21 1.54 7 7 0 00-1.43 2.32 8 8 0 00-.52 2.93 8.14 8.14 0 00.52 3 6.84 6.84 0 001.41 2.32 6.38 6.38 0 002.17 1.51 7 7 0 002.77.54 6.49 6.49 0 003-.67 5.86 5.86 0 002.09-1.77l4.07 3.8a11.6 11.6 0 01-3.83 2.88zM303.16 295.27a9.09 9.09 0 01-.75 3.74 8.29 8.29 0 01-2.05 2.84 9.47 9.47 0 01-3 1.82 10.7 10.7 0 01-7.29 0 9.05 9.05 0 01-3-1.82 8.4 8.4 0 01-2-2.84 9.09 9.09 0 01-.75-3.74 9 9 0 01.75-3.73 8.28 8.28 0 012-2.81 8.6 8.6 0 013-1.76 11.2 11.2 0 017.29 0 9 9 0 013 1.76 8.17 8.17 0 012.05 2.81 9 9 0 01.75 3.73zm-5.4 0a4.84 4.84 0 00-.27-1.6 4.24 4.24 0 00-.79-1.37 4.05 4.05 0 00-1.26-1 4.2 4.2 0 00-3.49 0 3.9 3.9 0 00-1.25 1 4.14 4.14 0 00-.75 1.37 5.21 5.21 0 000 3.19 4.25 4.25 0 00.77 1.4 3.79 3.79 0 001.27 1 4.17 4.17 0 003.48 0 3.89 3.89 0 001.27-1 4.25 4.25 0 00.77-1.4 5.08 5.08 0 00.25-1.59zM317.76 291.47a4.12 4.12 0 00-.74-.13 5.58 5.58 0 00-.7 0 4.07 4.07 0 00-1.9.41 3.81 3.81 0 00-1.23 1 3.67 3.67 0 00-.66 1.25 4 4 0 00-.21 1.18v8.65h-5.6v-16.91h5.39v2.44h.07a5.57 5.57 0 011.85-2.12 4.83 4.83 0 012.77-.81h.66a2.64 2.64 0 01.53.1zM336.52 295.54v.67a4.54 4.54 0 010 .65h-12.37a2.81 2.81 0 00.42 1.28 3.54 3.54 0 00.93 1 4 4 0 001.26.66 4.45 4.45 0 001.45.24 4.75 4.75 0 002.26-.49 4.54 4.54 0 001.5-1.27l3.9 2.44a7.89 7.89 0 01-3.16 2.66 10.56 10.56 0 01-4.57.93 11.12 11.12 0 01-3.62-.59 8.89 8.89 0 01-3-1.73 8.15 8.15 0 01-2-2.79 10.16 10.16 0 010-7.54 8.5 8.5 0 011.95-2.85 8.63 8.63 0 012.9-1.81 10 10 0 013.62-.64 9.42 9.42 0 013.46.62 7.59 7.59 0 012.69 1.82 8.38 8.38 0 011.77 2.88 11 11 0 01.61 3.86zm-5.16-2.14a3.32 3.32 0 00-.84-2.27 3.19 3.19 0 00-2.51-.95 4.31 4.31 0 00-1.51.26 4 4 0 00-1.19.69 3.43 3.43 0 00-.82 1 2.84 2.84 0 00-.34 1.23zM224.94 393.07l.11-13.89H225l-5.14 13.89h-3.36l-5-13.89h-.08l.11 13.89H207v-19.63h6.8l4.5 12.56h.11l4.31-12.59h6.92v19.63zM233.25 381.15a8 8 0 012.86-1.75 10.12 10.12 0 013.34-.58 8.9 8.9 0 013 .43 4.45 4.45 0 012 1.33 5.55 5.55 0 011.11 2.27 13.5 13.5 0 01.35 3.26v7h-4.2v-1.51h-.08a3.47 3.47 0 01-1.61 1.33 5.81 5.81 0 01-2.33.47 7.68 7.68 0 01-1.74-.22 5.2 5.2 0 01-1.63-.72 4 4 0 01-1.22-1.33 4.06 4.06 0 01-.47-2.05 3.48 3.48 0 01.82-2.42 5.37 5.37 0 012.13-1.41 11.34 11.34 0 012.89-.66 27.59 27.59 0 013.1-.17v-.22a1.68 1.68 0 00-.72-1.51 3.11 3.11 0 00-1.79-.49 4.48 4.48 0 00-1.89.42 5.75 5.75 0 00-1.55 1zm8.41 5.9h-.58c-.51 0-1 0-1.53.07a7.26 7.26 0 00-1.37.26 2.53 2.53 0 00-1 .57 1.31 1.31 0 00-.39 1 1.16 1.16 0 00.18.66 1.52 1.52 0 00.46.45 2.08 2.08 0 00.65.23 3.37 3.37 0 00.69.07 2.61 2.61 0 002.88-2.83zM258.3 383a3.35 3.35 0 00-.6-.12h-.57a3.33 3.33 0 00-1.56.33 3.24 3.24 0 00-1 .8 3.16 3.16 0 00-.55 1 3.48 3.48 0 00-.17 1v7.08h-4.58v-13.81h4.42v2h.05a4.51 4.51 0 011.51-1.73 3.89 3.89 0 012.27-.67h.54a2.11 2.11 0 01.44.09zM275.83 386.11a8.87 8.87 0 01-.44 2.77 7.05 7.05 0 01-1.31 2.34 6.2 6.2 0 01-4.87 2.23 6 6 0 01-2.44-.51 4.37 4.37 0 01-1.79-1.4h-.05v8.18h-4.59v-20.46h4.36V381h.09a5.79 5.79 0 011.77-1.45 5.43 5.43 0 012.67-.62 6.29 6.29 0 012.74.58 6.09 6.09 0 012.09 1.58 7.08 7.08 0 011.31 2.31 8.24 8.24 0 01.46 2.71zm-4.44 0a4.11 4.11 0 00-.21-1.3 3.3 3.3 0 00-.62-1.12 3.13 3.13 0 00-1-.8 3.19 3.19 0 00-1.42-.3 3.13 3.13 0 00-1.4.3 3.51 3.51 0 00-1.05.81 3.81 3.81 0 00-.91 2.44 3.65 3.65 0 00.24 1.3 3.85 3.85 0 00.67 1.14 3.33 3.33 0 001.05.8 3.13 3.13 0 001.4.3 3.19 3.19 0 001.42-.3 3 3 0 001-.8 3.65 3.65 0 00.62-1.15 4.33 4.33 0 00.21-1.32zM283.69 374.86a2.3 2.3 0 01-.21 1 2.51 2.51 0 01-.56.79 2.56 2.56 0 01-.84.53 2.68 2.68 0 01-1 .19 2.57 2.57 0 01-1.87-.73 2.36 2.36 0 01-.76-1.76 2.46 2.46 0 01.2-1 2.32 2.32 0 01.56-.79 3 3 0 01.84-.54 2.5 2.5 0 011-.21 2.69 2.69 0 011 .2 2.41 2.41 0 01.84.53 2.59 2.59 0 01.56.78 2.38 2.38 0 01.24 1.01zm-4.92 18.21v-13.81h4.59v13.81zM292 382.65v5.28a2.36 2.36 0 00.37 1.46 1.63 1.63 0 001.36.49 4.44 4.44 0 00.71-.06 2.3 2.3 0 00.63-.16l.06 3.32a7.56 7.56 0 01-1.2.29 8 8 0 01-1.46.13 7 7 0 01-2.35-.35 3.58 3.58 0 01-1.52-1 4 4 0 01-.83-1.56 7.79 7.79 0 01-.25-2v-5.83h-2.23v-3.39h2.21v-3.63h4.5v3.63h3.27v3.39zM200.63 410.17a3.71 3.71 0 00-.45-.11 3.15 3.15 0 00-.53 0 1.67 1.67 0 00-.8.17 1.35 1.35 0 00-.48.47 2.19 2.19 0 00-.24.65 4.62 4.62 0 00-.06.74v1.07h2.41v2.63h-2.41v8.11h-3.57v-8.11h-2v-2.63h2v-1a7.77 7.77 0 01.22-1.89 4 4 0 01.75-1.57 3.69 3.69 0 011.43-1.08 5.73 5.73 0 012.25-.4 6.84 6.84 0 01.91.06 4.65 4.65 0 01.81.16zM208.85 416a2.46 2.46 0 00-.46-.08 3.39 3.39 0 00-.45 0 2.38 2.38 0 00-2 .88 2.32 2.32 0 00-.42.79 2.57 2.57 0 00-.13.76v5.5h-3.57v-10.71h3.44v1.55a3.55 3.55 0 011.17-1.35 3.12 3.12 0 011.77-.52h.42a2 2 0 01.34.07zM209.94 414.59a6.29 6.29 0 012.23-1.36 7.77 7.77 0 012.6-.45 7.12 7.12 0 012.32.33 3.48 3.48 0 011.53 1 4.33 4.33 0 01.86 1.76 10.52 10.52 0 01.27 2.54v5.41h-3.26v-1.14h-.07a2.64 2.64 0 01-1.25 1 4.54 4.54 0 01-1.81.37 5.34 5.34 0 01-1.35-.18 3.73 3.73 0 01-1.27-.56 3 3 0 01-1-1 3.13 3.13 0 01-.37-1.6 2.67 2.67 0 01.64-1.87 4.2 4.2 0 011.65-1.1 9 9 0 012.26-.52c.82-.08 1.63-.13 2.41-.13V417a1.3 1.3 0 00-.57-1.17 2.37 2.37 0 00-1.39-.38 3.61 3.61 0 00-1.47.32 4.78 4.78 0 00-1.2.78zm6.55 4.59H216c-.39 0-.79 0-1.18.05a5.2 5.2 0 00-1.07.21 2 2 0 00-.77.44 1 1 0 00-.31.77.85.85 0 00.15.51 1.06 1.06 0 00.35.35 1.41 1.41 0 00.51.18 2.48 2.48 0 00.54.06 2.19 2.19 0 001.66-.6 2.17 2.17 0 00.58-1.6zM236.24 423.86V418a6.15 6.15 0 00-.07-.88 1.91 1.91 0 00-.24-.72 1.38 1.38 0 00-.47-.49 1.44 1.44 0 00-.77-.18 1.54 1.54 0 00-.79.2 1.64 1.64 0 00-.57.51 2.32 2.32 0 00-.33.75 3.15 3.15 0 00-.11.87v5.8h-3.57v-6.12a2.54 2.54 0 00-.37-1.47 1.33 1.33 0 00-1.17-.54 1.53 1.53 0 00-1.32.67 2.81 2.81 0 00-.46 1.6v5.82h-3.6v-10.7h3.46v1.49a4.16 4.16 0 01.48-.67 3.7 3.7 0 01.71-.57 4.14 4.14 0 01.93-.4 3.94 3.94 0 011.12-.15 3.88 3.88 0 012 .48 3.31 3.31 0 011.27 1.35 3.9 3.9 0 013.46-1.83 3.88 3.88 0 011.86.4 3.38 3.38 0 011.2 1 4.13 4.13 0 01.67 1.42 6.38 6.38 0 01.2 1.54v6.64zM253.24 418.62v.43a2.68 2.68 0 010 .41h-7.85a1.9 1.9 0 00.27.82 2.38 2.38 0 00.59.64 2.86 2.86 0 001.73.57 3 3 0 001.43-.32 2.69 2.69 0 001-.8l2.48 1.55a5.1 5.1 0 01-2 1.69 6.66 6.66 0 01-2.91.59 7 7 0 01-2.3-.37 5.68 5.68 0 01-1.9-1.1 5.13 5.13 0 01-1.29-1.78 6 6 0 01-.46-2.42 6.08 6.08 0 01.45-2.38 5.32 5.32 0 013.09-3 6.45 6.45 0 012.31-.41 5.77 5.77 0 012.19.4 4.73 4.73 0 011.72 1.15 5.27 5.27 0 011.12 1.83 7 7 0 01.33 2.5zm-3.24-1.36a2.12 2.12 0 00-.53-1.44 2 2 0 00-1.6-.61 2.69 2.69 0 00-1 .17 2.3 2.3 0 00-.76.44 2.09 2.09 0 00-.52.66 2 2 0 00-.22.78zM269.25 423.86h-3.59l-2.13-6.68-2.09 6.68h-3.59l-3.74-10.74h3.85l1.87 6.79h.06l1.94-6.79h3.59l2 6.79 1.9-6.79H273zM285.89 418.45a5.75 5.75 0 01-.48 2.38 5.3 5.3 0 01-1.31 1.81 5.87 5.87 0 01-1.91 1.15 6.77 6.77 0 01-4.64 0 5.81 5.81 0 01-1.92-1.15 5.53 5.53 0 01-1.29-1.81 5.75 5.75 0 01-.48-2.38 5.64 5.64 0 01.48-2.37 5.34 5.34 0 011.29-1.79 5.74 5.74 0 011.92-1.12 7.1 7.1 0 014.64 0 5.8 5.8 0 011.91 1.12 5.13 5.13 0 011.31 1.79 5.64 5.64 0 01.48 2.37zm-3.44 0a3.15 3.15 0 00-.17-1 2.8 2.8 0 00-.5-.88 2.62 2.62 0 00-.78-.57 2.69 2.69 0 00-2.22 0 2.53 2.53 0 00-.79.61 2.58 2.58 0 00-.48.88 3.14 3.14 0 00-.16 1 3.18 3.18 0 00.16 1 2.67 2.67 0 00.49.89 2.42 2.42 0 00.81.64 2.38 2.38 0 001.1.24 2.4 2.4 0 001.92-.88 2.67 2.67 0 00.49-.89 3.18 3.18 0 00.13-1.04zM295.17 416a2.61 2.61 0 00-.46-.08 3.54 3.54 0 00-.45 0 2.38 2.38 0 00-2 .88 2.16 2.16 0 00-.42.79 2.57 2.57 0 00-.13.76v5.5h-3.57v-10.71h3.44v1.55a3.55 3.55 0 011.17-1.35 3.12 3.12 0 011.77-.52h.42a2 2 0 01.34.07zM308.4 423.86H304l-3.54-5.15h-.07v5.15h-3.59v-16.3h3.59v9.92h.07l3.46-4.36h4.32l-4.19 4.88z"/><path class="e" d="M180.73 363.07l-16.2-5.84 2.29-6.22 16.19 5.84 2.92-7.95 18.26 19.12-26.38 3 2.92-7.95z"/><path class="d" d="M186.32 350.75l15.76 16.5-22.78 2.6 2.71-7.38-16.19-5.84 1.59-4.34 16.2 5.84 2.71-7.38m-.77-3.7l-1.11 3-2 5.51-14.33-5.16-1.87-.68-.68 1.87-1.6 4.34-.69 1.89 1.89.68 14.3 5.16-2 5.49-1.12 3 3.22-.36 22.78-2.6 4-.46-2.78-2.91-15.77-16.5-2.21-2.32z"/><path class="e" d="M102.36 333.82l-16.19-5.84 2.28-6.22 16.2 5.84 2.92-7.95 18.26 19.11-26.39 3.01 2.92-7.95z"/><path class="d" d="M108 321.5l15.71 16.5-22.77 2.6 2.71-7.38-16.2-5.84 1.6-4.35 16.19 5.85 2.76-7.38m-.77-3.7l-1.11 3-2 5.51-14.32-5.17-1.87-.67-.69 1.87-1.59 4.34-.7 1.88 1.89.69 14.31 5.16-2 5.49-1.12 3 3.22-.37 22.78-2.6 4-.45-2.78-2.91-15.76-16.5-2.22-2.32z"/><path class="e" d="M374.22 459.71l26.39-3.01-2.92 7.96 16.19 5.84-2.28 6.21-16.2-5.84-2.92 7.96-18.26-19.12z"/><path class="d" d="M399.11 457.88l-2.71 7.38 16.19 5.84-1.59 4.34-16.19-5.84-2.71 7.4-15.76-16.5 22.77-2.6m3-2.36l-3.23.37-22.77 2.6-4 .45 2.78 2.92 15.76 16.5 2.22 2.32 1.11-3 2-5.51 14.32 5.17 1.87.67.69-1.86 1.59-4.34.7-1.89-1.9-.68-14.25-5.2 2-5.49 1.12-3.05zm-3 .36zm0 4z"/><path class="e" d="M295.86 430.46l26.38-3.01-2.92 7.95 16.19 5.85-2.28 6.21-16.19-5.84-2.92 7.95-18.26-19.11z"/><path class="d" d="M320.75 428.62L318 436l16.19 5.84-1.59 4.34-16.2-5.84-2.71 7.38-15.69-16.5 22.78-2.6m3-2.35l-3.22.37-22.78 2.6-4 .45 2.78 2.91 15.77 16.5 2.21 2.32 1.11-3 2-5.51 14.35 5.16 1.87.67.68-1.87 1.6-4.34.69-1.88-1.89-.69-14.3-5.16 2-5.49 1.12-3zm-3 .35zm0 4zM224.68 139.47H42.13a6.78 6.78 0 01-6.81-6.74V8.22a6.77 6.77 0 016.81-6.72h415.74a6.77 6.77 0 016.81 6.72v124.51a6.78 6.78 0 01-6.81 6.74H277.54l-26.42 24z"/><path class="f" d="M457.87 3a5.27 5.27 0 015.31 5.22v124.51a5.28 5.28 0 01-5.31 5.24H277l-.86.78-25 22.73-25-22.73-.86-.78H42.13a5.28 5.28 0 01-5.31-5.24V8.22A5.27 5.27 0 0142.13 3h415.74m0-3H42.13a8.27 8.27 0 00-8.31 8.22v124.51a8.29 8.29 0 008.31 8.27h182l27 24.57 27-24.57h179.74a8.29 8.29 0 008.31-8.24V8.22A8.27 8.27 0 00457.87 0z"/><path class="f" d="M433.61 67.9a2.12 2.12 0 11-2.12-2.1 2.08 2.08 0 012.12 2.1zm11.38 0a2.12 2.12 0 11-2.12-2.1 2.08 2.08 0 012.13 2.1zm11.42 0a2.12 2.12 0 11-2.12-2.1 2.08 2.08 0 012.12 2.1z"/><ellipse class="f" cx="102.42" cy="69.45" rx="57.89" ry="57.38"/><path class="d" d="M95.43 81.58a14.85 14.85 0 01-6.18 1.21 16.08 16.08 0 01-5.88-1 13.78 13.78 0 01-4.68-2.94 13.63 13.63 0 01-3.11-4.56 15.92 15.92 0 010-11.78A13.18 13.18 0 0178.77 58a13.88 13.88 0 014.74-2.87 17.13 17.13 0 0111.59 0 10.9 10.9 0 014.56 3l-4.5 4.47a5.55 5.55 0 00-2.45-1.89 8.17 8.17 0 00-3.11-.61 8 8 0 00-3.2.63 7.42 7.42 0 00-2.5 1.75 8.11 8.11 0 00-1.64 2.64 9.39 9.39 0 00-.58 3.33 9.73 9.73 0 00.58 3.39 7.88 7.88 0 001.62 2.63 7.16 7.16 0 002.46 1.71 7.77 7.77 0 003.15.62 7.38 7.38 0 003.45-.8 6.57 6.57 0 002.37-2l4.62 4.31a12.93 12.93 0 01-4.5 3.27zM102.77 82.06V54.81h6.68v21.52h10.64v5.73zM123.2 82.06V54.81h6.68v27.25z"/><ellipse class="f" cx="360.3" cy="69.45" rx="57.89" ry="57.38"/><path class="d" d="M333.18 68.78a7 7 0 01-.7 3.21 6.45 6.45 0 01-1.84 2.22 7.65 7.65 0 01-2.57 1.28 10.33 10.33 0 01-2.91.41h-5.33V61.73H325a13.13 13.13 0 013 .35 7.68 7.68 0 012.62 1.16 5.93 5.93 0 011.86 2.18 7.2 7.2 0 01.7 3.36zm-3.6 0a4.46 4.46 0 00-.39-2 3.35 3.35 0 00-1.05-1.26 4.09 4.09 0 00-1.5-.67 7 7 0 00-1.72-.2h-1.72v8.28h1.64a7.48 7.48 0 001.78-.21 4.31 4.31 0 001.52-.69 3.5 3.5 0 001.05-1.28 4.48 4.48 0 00.39-1.97zM345.25 71v.4a2.36 2.36 0 010 .38h-7.29a1.8 1.8 0 00.25.76 2.37 2.37 0 00.55.59 2.43 2.43 0 00.75.39 2.46 2.46 0 00.86.14 2.84 2.84 0 001.33-.29 2.6 2.6 0 00.89-.75l2.3 1.44a4.55 4.55 0 01-1.89 1.61 6.17 6.17 0 01-2.7.55 6.36 6.36 0 01-2.14-.35 5.06 5.06 0 01-1.76-1 4.55 4.55 0 01-1.19-1.65 5.91 5.91 0 010-4.45 4.88 4.88 0 011.15-1.68 5 5 0 011.7-1.09 5.81 5.81 0 012.14-.38 5.4 5.4 0 012 .37 4.29 4.29 0 011.6 1.07 4.92 4.92 0 011 1.7 6.45 6.45 0 01.45 2.24zm-3.05-1.26a1.94 1.94 0 00-.49-1.34 1.87 1.87 0 00-1.49-.56 2.46 2.46 0 00-.88.15 2.17 2.17 0 00-.71.41 2.09 2.09 0 00-.49.61 1.9 1.9 0 00-.2.73zM353.23 68.88a3.52 3.52 0 00-1-.64 2.55 2.55 0 00-1.15-.26 2 2 0 00-.86.18.63.63 0 00-.39.62.61.61 0 00.43.6 10.18 10.18 0 001.4.4 7.47 7.47 0 011.15.34 4 4 0 011 .58 2.77 2.77 0 01.75.88 2.55 2.55 0 01.29 1.24 3 3 0 01-.39 1.59 3 3 0 01-1 1 4.25 4.25 0 01-1.38.58 6.68 6.68 0 01-1.54.18 7.65 7.65 0 01-2.41-.39 5.06 5.06 0 01-2-1.15l1.86-1.94a3.71 3.71 0 001.09.8 3.1 3.1 0 001.37.32 1.77 1.77 0 00.8-.19.69.69 0 00.4-.67.73.73 0 00-.49-.68 8.49 8.49 0 00-1.51-.46 8.41 8.41 0 01-1.05-.32 3 3 0 01-.94-.54 2.79 2.79 0 01-.68-.84 2.5 2.5 0 01-.26-1.2 2.94 2.94 0 01.38-1.53 3.25 3.25 0 011-1 4.15 4.15 0 011.34-.59 5.76 5.76 0 011.47-.19 7 7 0 012.21.35 4.73 4.73 0 011.83 1zM367.65 75.9h-4.1l-3.29-4.78h-.06v4.78h-3.33V60.77h3.33V70h.06l3.21-4h4l-3.88 4.5zM372.45 68.38v3.82a1.71 1.71 0 00.28 1 1.17 1.17 0 001 .35 3.08 3.08 0 00.51 0 1.81 1.81 0 00.46-.12v2.4a5.57 5.57 0 01-.87.21 6.2 6.2 0 01-1.05.09 4.92 4.92 0 01-1.7-.25 2.52 2.52 0 01-1.1-.72 2.74 2.74 0 01-.59-1.12 5.11 5.11 0 01-.19-1.46v-4.2h-1.61v-2.44h1.59v-2.63h3.25v2.63h2.37v2.44zM387 70.88a5.29 5.29 0 01-.44 2.21 5 5 0 01-1.21 1.68 5.42 5.42 0 01-1.78 1.07 5.91 5.91 0 01-2.16.38 6 6 0 01-2.15-.38 5.42 5.42 0 01-1.78-1.07 5.14 5.14 0 01-1.2-1.68 5.29 5.29 0 01-.44-2.21 5.21 5.21 0 01.44-2.2 5 5 0 011.2-1.66 5.19 5.19 0 011.78-1 6.43 6.43 0 012.15-.36 6.36 6.36 0 012.16.36 5.19 5.19 0 011.78 1 4.85 4.85 0 011.21 1.66 5.21 5.21 0 01.44 2.2zm-3.19 0a2.77 2.77 0 00-.16-.94 2.48 2.48 0 00-.46-.81 2.26 2.26 0 00-.75-.57 2.23 2.23 0 00-1-.22 2.26 2.26 0 00-1 .22 2.33 2.33 0 00-.74.57 2.44 2.44 0 00-.44.81 3 3 0 000 1.88 2.57 2.57 0 00.45.83 2.39 2.39 0 00.75.59 2.52 2.52 0 002.06 0 2.19 2.19 0 00.75-.59 2.57 2.57 0 00.45-.83 3 3 0 00.12-.94zM400.32 70.88a6.12 6.12 0 01-.32 2 5 5 0 01-.94 1.69 4.54 4.54 0 01-1.5 1.17 4.44 4.44 0 01-2 .44 4.21 4.21 0 01-1.76-.37 3.06 3.06 0 01-1.29-1v5.91h-3.31V65.94h3.15v1.22h.06a4 4 0 011.28-1 3.93 3.93 0 011.93-.45 4.62 4.62 0 012 .42 4.46 4.46 0 011.5 1.14 5.08 5.08 0 01.95 1.67 6 6 0 01.25 1.94zm-3.21 0a3 3 0 00-.15-.94 2.44 2.44 0 00-.44-.81 2.22 2.22 0 00-.74-.57 2.26 2.26 0 00-1-.22 2.21 2.21 0 00-1 .22 2.3 2.3 0 00-.76.58 2.5 2.5 0 00-.48.82 2.68 2.68 0 000 1.88 2.5 2.5 0 00.48.82 2.44 2.44 0 00.76.58 2.21 2.21 0 001 .22 2.21 2.21 0 001.77-.8 2.64 2.64 0 00.44-.83 3.09 3.09 0 00.12-.95z"/><ellipse class="f" cx="231.36" cy="69.45" rx="57.89" ry="57.38"/><path class="d" d="M220.65 80.52h-5.78l-4.78-16.22H210l-4.8 16.22h-5.81l-6.87-24h6.29l3.83 15.95h.1l4.31-15.95h6.08l4.34 15.95h.1l3.9-15.95h6.08zM245.43 72.29V73a6.28 6.28 0 010 .64h-12.38a3 3 0 00.43 1.29 3.8 3.8 0 00.92 1 4.64 4.64 0 001.27.66 4.45 4.45 0 001.45.24 4.75 4.75 0 002.26-.5 4.42 4.42 0 001.5-1.27l3.9 2.44a7.89 7.89 0 01-3.16 2.66 10.6 10.6 0 01-4.57.93 10.86 10.86 0 01-3.62-.59 8.63 8.63 0 01-3-1.73 8 8 0 01-2-2.79 9.29 9.29 0 01-.73-3.79 9.43 9.43 0 01.72-3.75 8.39 8.39 0 011.94-2.84 8.52 8.52 0 012.91-1.81 10 10 0 013.62-.65 9.13 9.13 0 013.45.63 7.51 7.51 0 012.7 1.81 8.21 8.21 0 011.76 2.88 10.81 10.81 0 01.63 3.83zm-5.16-2.13a3.31 3.31 0 00-.84-2.27 3.19 3.19 0 00-2.51-1 4.31 4.31 0 00-1.51.25 3.82 3.82 0 00-1.19.7 3.25 3.25 0 00-.82 1 3.08 3.08 0 00-.35 1.24zM267.88 72a10.43 10.43 0 01-.55 3.39 8.51 8.51 0 01-1.59 2.86 7.75 7.75 0 01-2.54 2 7.58 7.58 0 01-3.42.75 7.72 7.72 0 01-3.23-.7 5.31 5.31 0 01-2.34-2h-.07v2.2H249V54.92h5.6v10.53h.07a7.21 7.21 0 012-1.56 6.61 6.61 0 013.18-.71 7.67 7.67 0 013.33.71 7.78 7.78 0 012.53 1.93 8.87 8.87 0 011.61 2.83 10.27 10.27 0 01.56 3.35zm-5.4 0a5.09 5.09 0 00-.26-1.59 3.77 3.77 0 00-.77-1.37 3.93 3.93 0 00-1.26-1 3.84 3.84 0 00-1.74-.37 3.77 3.77 0 00-1.71.37 4.16 4.16 0 00-1.28 1 4.33 4.33 0 00-.82 1.39 4.39 4.39 0 000 3.19 4.18 4.18 0 00.82 1.38 4 4 0 001.28 1 3.77 3.77 0 001.71.37 3.74 3.74 0 003-1.36 3.9 3.9 0 00.77-1.4 5.26 5.26 0 00.26-1.61zM42.13 798.5a6.77 6.77 0 01-6.81-6.72V667.27a6.78 6.78 0 016.81-6.74h180.33l26.42-24 26.44 24h182.55a6.78 6.78 0 016.81 6.74v124.51a6.77 6.77 0 01-6.81 6.72z"/><path class="f" d="M248.88 638.52l25 22.73.86.78h183.13a5.28 5.28 0 015.31 5.24v124.51a5.27 5.27 0 01-5.31 5.22H42.13a5.27 5.27 0 01-5.31-5.22V667.27a5.28 5.28 0 015.31-5.27H223l.86-.78 25-22.73m0-4.06l-27 24.57H42.13a8.29 8.29 0 00-8.31 8.24v124.54a8.27 8.27 0 008.31 8.22h415.74a8.27 8.27 0 008.31-8.22V667.27a8.29 8.29 0 00-8.31-8.24h-182l-27-24.57z"/><path class="f" d="M432.61 725.89a2.12 2.12 0 11-2.12-2.1 2.08 2.08 0 012.12 2.1zm11.38 0a2.12 2.12 0 11-2.12-2.1 2.08 2.08 0 012.13 2.1zm11.42 0a2.12 2.12 0 11-2.12-2.1 2.08 2.08 0 012.12 2.1z"/><ellipse class="f" cx="231.42" cy="729" rx="57.89" ry="57.38"/><path class="d" d="M205.93 739.48l-4.54-8.22h-1.72v8.22h-4.93v-20.71h8a13.71 13.71 0 012.94.31 7.46 7.46 0 012.56 1 5.35 5.35 0 011.82 1.93 6 6 0 01.68 3 5.47 5.47 0 01-1.15 3.54 6.27 6.27 0 01-3.19 2l5.46 8.86zm-.21-14.36a2 2 0 00-.31-1.19 2.24 2.24 0 00-.8-.7 3.73 3.73 0 00-1.1-.34 9.59 9.59 0 00-1.17-.08h-2.7v4.82H202a8.06 8.06 0 001.28-.1 4.28 4.28 0 001.18-.36 2.25 2.25 0 00.88-.77 2.2 2.2 0 00.38-1.28zM228.27 732.37v.63a4.8 4.8 0 010 .55h-10.68a2.47 2.47 0 00.36 1.11 3.31 3.31 0 00.8.87 4.19 4.19 0 001.09.57 3.82 3.82 0 001.26.2 4.16 4.16 0 002-.42 3.87 3.87 0 001.3-1.1l3.36 2.11a6.78 6.78 0 01-2.73 2.29 9.06 9.06 0 01-4.03.82 9.51 9.51 0 01-3.13-.51 7.69 7.69 0 01-2.58-1.49 6.89 6.89 0 01-1.74-2.42 7.9 7.9 0 01-.64-3.28 8.23 8.23 0 01.62-3.23 7.37 7.37 0 011.68-2.45 7.46 7.46 0 012.51-1.57 8.69 8.69 0 013.13-.55 8 8 0 013 .54 6.46 6.46 0 012.33 1.56 7.1 7.1 0 011.52 2.49 9.3 9.3 0 01.57 3.28zm-4.46-1.84a2.88 2.88 0 00-.72-2 2.72 2.72 0 00-2.17-.82 3.66 3.66 0 00-1.3.22 3.49 3.49 0 00-1 .6 2.91 2.91 0 00-.71.89 2.41 2.41 0 00-.29 1.07zM230.9 726.9a8.41 8.41 0 013-1.84 10.45 10.45 0 013.53-.61 9.52 9.52 0 013.14.45 4.66 4.66 0 012.08 1.4 6 6 0 011.17 2.4 13.88 13.88 0 01.37 3.44v7.34h-4.43v-1.55h-.09a3.59 3.59 0 01-1.69 1.4 6 6 0 01-2.47.5 7.91 7.91 0 01-1.83-.23 5.6 5.6 0 01-1.73-.76 4.06 4.06 0 01-1.28-1.41 4.31 4.31 0 01-.5-2.16 3.69 3.69 0 01.87-2.55 5.76 5.76 0 012.24-1.49 12.26 12.26 0 013.06-.7 30.7 30.7 0 013.27-.18v-.23a1.77 1.77 0 00-.76-1.59A3.3 3.3 0 00237 728a4.81 4.81 0 00-2 .44 6.65 6.65 0 00-1.63 1.06zm8.88 6.23h-.62c-.53 0-1.07 0-1.61.08a6.47 6.47 0 00-1.44.27 2.68 2.68 0 00-1.05.6 1.36 1.36 0 00-.41 1 1.2 1.2 0 00.19.7 1.54 1.54 0 00.48.47 2.12 2.12 0 00.68.25 3.93 3.93 0 00.74.07 2.75 2.75 0 003-3zM258 729.62a3 3 0 00-1.12-.85 3.5 3.5 0 00-1.44-.32 3 3 0 00-1.39.31 3.32 3.32 0 00-1.06.82 3.88 3.88 0 00-.7 1.18 4 4 0 00-.25 1.44 4.25 4.25 0 00.24 1.43 3.54 3.54 0 00.69 1.19 3.46 3.46 0 001.09.8 3.32 3.32 0 001.43.29 4 4 0 001.47-.28 2.71 2.71 0 001.16-.8l2.69 3.25a6.39 6.39 0 01-2.36 1.37 9.45 9.45 0 01-3.07.5 9.8 9.8 0 01-3.25-.53 7.56 7.56 0 01-2.63-1.53 7.36 7.36 0 01-1.75-2.45 8.47 8.47 0 010-6.46 7.22 7.22 0 011.75-2.44 7.6 7.6 0 012.63-1.55 9.46 9.46 0 013.22-.54 8.44 8.44 0 011.58.14 10.32 10.32 0 011.5.4 6.75 6.75 0 011.33.61 5.8 5.8 0 011 .8zM267.91 728.48v5.58a2.44 2.44 0 00.4 1.54 1.68 1.68 0 001.43.52 4.93 4.93 0 00.75-.06 2.58 2.58 0 00.67-.18l.06 3.51a8.15 8.15 0 01-1.27.31 9 9 0 01-1.54.13 7.43 7.43 0 01-2.48-.36 3.94 3.94 0 01-1.61-1.06 4.24 4.24 0 01-.87-1.64 8.29 8.29 0 01-.26-2.13v-6.16h-2.36v-3.57h2.33v-3.83h4.75v3.83h3.45v3.57z"/><ellipse class="f" cx="102.48" cy="729" rx="57.89" ry="57.38"/><path class="d" d="M97.25 716.39h-4.78L85 696.77h5.37l4.58 13.91H95l4.56-13.91h5.29zM117 701.87a4.37 4.37 0 00-1.61-1.24 4.65 4.65 0 00-1.92-.46 5.28 5.28 0 00-1 .09 2.32 2.32 0 00-.88.32 2.13 2.13 0 00-.66.61 1.57 1.57 0 00-.27.95 1.53 1.53 0 00.21.83 2 2 0 00.62.59 6.18 6.18 0 001 .45c.38.14.8.29 1.26.43.67.22 1.37.47 2.1.74a7.82 7.82 0 012 1.06 5.74 5.74 0 011.49 1.65 4.77 4.77 0 01.58 2.46 6.48 6.48 0 01-.62 2.92 5.92 5.92 0 01-1.7 2 7.44 7.44 0 01-2.43 1.19 10.27 10.27 0 01-2.82.39 11.72 11.72 0 01-4.11-.74 8.69 8.69 0 01-3.3-2.09l3.06-3.12a5.78 5.78 0 001.91 1.48 5.24 5.24 0 002.37.6 5 5 0 001-.11 2.8 2.8 0 00.88-.36 1.85 1.85 0 00.6-.67 2.08 2.08 0 00.23-1 1.61 1.61 0 00-.28-.94 2.78 2.78 0 00-.8-.7 6.25 6.25 0 00-1.29-.59l-1.74-.57a14.91 14.91 0 01-1.86-.72 6.19 6.19 0 01-1.63-1.06 5.08 5.08 0 01-1.14-1.58 5.29 5.29 0 01-.44-2.26 5.5 5.5 0 01.68-2.8 5.66 5.66 0 011.76-1.91 7.44 7.44 0 012.46-1.1 11.24 11.24 0 012.77-.34 10.26 10.26 0 013.42.61 8.55 8.55 0 013.06 1.8zM83 754.53a10.69 10.69 0 01-4.44.87 11.91 11.91 0 01-4.24-.74 9.87 9.87 0 01-3.37-2.13 9.71 9.71 0 01-2.24-3.28 11.37 11.37 0 010-8.48 9.59 9.59 0 012.29-3.26 10.14 10.14 0 013.41-2.06 12.38 12.38 0 018.35 0 7.93 7.93 0 013.24 2.16l-3.24 3.22a4 4 0 00-1.76-1.36 6 6 0 00-4.55 0 5.51 5.51 0 00-1.8 1.26 5.69 5.69 0 00-1.18 1.9 6.65 6.65 0 00-.42 2.4 6.87 6.87 0 00.42 2.44 5.77 5.77 0 001.16 1.9 5.45 5.45 0 001.78 1.23 5.76 5.76 0 002.26.44 5.26 5.26 0 002.49-.55 4.84 4.84 0 001.71-1.44l3.33 3.1a9.39 9.39 0 01-3.2 2.38zM102.43 747.92a7.37 7.37 0 01-.61 3.06 6.83 6.83 0 01-1.68 2.33 7.66 7.66 0 01-2.46 1.48 8.67 8.67 0 01-6 0 7.45 7.45 0 01-2.46-1.48 6.92 6.92 0 01-1.63-2.31 7.84 7.84 0 010-6.11 6.89 6.89 0 011.66-2.3 7.36 7.36 0 012.46-1.44 9.16 9.16 0 016 0 7.56 7.56 0 012.46 1.44 6.81 6.81 0 011.68 2.3 7.32 7.32 0 01.58 3.03zm-4.41 0a3.87 3.87 0 00-.23-1.3 3.34 3.34 0 00-.64-1.12 3.35 3.35 0 00-3.89-.79 3 3 0 00-1 .79 3.28 3.28 0 00-.61 1.12 4.13 4.13 0 000 2.6 3.48 3.48 0 00.63 1.15 3 3 0 001 .82 3.24 3.24 0 001.43.31 3.19 3.19 0 001.42-.31 3 3 0 001-.82 3.48 3.48 0 00.63-1.15 4.11 4.11 0 00.24-1.3zM115.88 754.88v-1.8a4.39 4.39 0 01-1.92 1.62 6.26 6.26 0 01-2.64.56 6.33 6.33 0 01-2.8-.6 6.42 6.42 0 01-2.08-1.63 7 7 0 01-1.3-2.34 8.55 8.55 0 01-.45-2.77 8.25 8.25 0 01.47-2.76 7 7 0 011.31-2.31 6.14 6.14 0 014.8-2.16 5.34 5.34 0 012.6.58 5.9 5.9 0 011.65 1.28v-8.62h4.59v21zm-.16-6.93a3.65 3.65 0 00-.24-1.3 3.61 3.61 0 00-.67-1.14 3.33 3.33 0 00-1-.8 3.36 3.36 0 00-2.82 0 3.19 3.19 0 00-1.67 1.91 4.11 4.11 0 00-.21 1.3 4.33 4.33 0 00.21 1.32 3.39 3.39 0 00.63 1.15 3.29 3.29 0 003.86.8 3.33 3.33 0 001-.8 3.61 3.61 0 00.67-1.14 3.65 3.65 0 00.24-1.25zM137.56 748.14v.56a4.28 4.28 0 010 .52h-10.1a2.56 2.56 0 00.35 1.06 3.07 3.07 0 00.76.81 3.27 3.27 0 001 .54 3.67 3.67 0 001.19.2 4 4 0 001.85-.4 3.79 3.79 0 001.23-1l3.18 2a6.38 6.38 0 01-2.58 2.18 8.61 8.61 0 01-3.74.76 8.8 8.8 0 01-3-.49 7.18 7.18 0 01-2.45-1.41 6.69 6.69 0 01-1.65-2.28 7.64 7.64 0 01-.6-3.19 7.73 7.73 0 01.59-3.06 6.89 6.89 0 011.59-2.33 7.19 7.19 0 012.38-1.48 8.19 8.19 0 013-.53 7.43 7.43 0 012.83.52 6.1 6.1 0 012.21 1.48 6.94 6.94 0 011.4 2.4 9.14 9.14 0 01.56 3.14zm-4.23-1.74a2.75 2.75 0 00-.68-1.86 2.6 2.6 0 00-2.06-.78 3.49 3.49 0 00-1.23.21 3.28 3.28 0 00-1 .57 2.77 2.77 0 00-.67.85 2.43 2.43 0 00-.28 1z"/><ellipse class="f" cx="360.36" cy="729" rx="57.89" ry="57.38"/><path class="d" d="M343.78 739.48h-5.84l-9.16-24h6.56l5.61 17h.13l5.57-17h6.46zM364.6 739.48v-2.34h-.07a5 5 0 01-2 2 7 7 0 01-1.47.61 5.85 5.85 0 01-1.69.23 6.33 6.33 0 01-2.89-.6 5.72 5.72 0 01-1.91-1.58 6.24 6.24 0 01-1.06-2.2 9.78 9.78 0 01-.32-2.52v-10.47h5.63v9.15a8.39 8.39 0 00.11 1.35 3.53 3.53 0 00.39 1.16 2.16 2.16 0 00.77.79 2.45 2.45 0 001.26.29 2.58 2.58 0 002.24-1.08 4.25 4.25 0 00.77-2.55v-9.11H370v16.87zM391.25 731.25v1.32h-12.37a3 3 0 00.43 1.29 4 4 0 00.92 1 4.64 4.64 0 001.27.66 4.41 4.41 0 001.45.24 4.68 4.68 0 002.25-.5 4.36 4.36 0 001.51-1.27l3.89 2.44a7.82 7.82 0 01-3.16 2.66 10.55 10.55 0 01-4.56.93 10.82 10.82 0 01-3.62-.59 8.63 8.63 0 01-3-1.73 7.84 7.84 0 01-2-2.79 9.29 9.29 0 01-.73-3.79 9.6 9.6 0 01.71-3.75 8.45 8.45 0 011.95-2.84 8.7 8.7 0 012.91-1.82 10.16 10.16 0 013.62-.64 9.21 9.21 0 013.45.63 7.39 7.39 0 012.7 1.81 8.36 8.36 0 011.76 2.88 11 11 0 01.62 3.86zm-5.16-2.13a3.34 3.34 0 00-.83-2.27 3.2 3.2 0 00-2.52-1 4.25 4.25 0 00-1.5.25 3.75 3.75 0 00-1.2.7 3.55 3.55 0 00-.82 1 3 3 0 00-.34 1.24z"/></svg>
