<svg xmlns="http://www.w3.org/2000/svg" viewBox="0 0 2000 1200"><defs><linearGradient id="a" x1="284.13" y1="124.1" x2="877.7" y2="263.56" gradientUnits="userSpaceOnUse"><stop offset="0" stop-color="#f3f3f3"/><stop offset="1" stop-color="#fdfdfd"/></linearGradient><linearGradient id="b" x1="855.49" y1="465.13" x2="1966.05" y2="232.05" gradientUnits="userSpaceOnUse"><stop offset=".53" stop-color="#f4f4f4"/><stop offset=".83" stop-color="#f2f2f2"/></linearGradient><linearGradient id="c" x1="118.65" y1="417.06" x2="593.1" y2="969.25" gradientUnits="userSpaceOnUse"><stop offset="0" stop-color="#e4e4e4"/><stop offset=".43" stop-color="#f1f1f1"/></linearGradient></defs><path fill="url(#a)" d="m1571.5 0-.1.1L0 483.9 510.8 0h1060.7z"/><path fill="#fefefe" d="M1571.4.1 856.6 779.7 0 483.9 1571.4.1z"/><path fill="#fdfdfd" d="M2000 0v53.7L1571.7 0H2000z"/><path fill="#f1f1f1" d="M2000 53.7v471.1L1571.7 0 2000 53.7z"/><path fill="url(#b)" d="M2000 524.8 856.6 779.7 1571.4.1l.3-.1L2000 524.8z"/><path fill="#f8f8f8" d="M2000 524.8v543.4L858 780.1l-1.4-.4L2000 524.8z"/><path fill="url(#c)" d="m552.8 1200 303.8-420.3L0 483.9 364.9 1200h187.9z"/><path fill="#fafafa" d="M0 .1v483.8L510.8 0 0 .1z"/><path fill="#ededed" d="M2000 1200v-131.8L858 780.1l-1.4-.4L552.8 1200H2000z"/><path fill="#f1f1f1" d="M364.9 1200 0 483.9V1200h364.9z"/></svg>